<?xml version="1.0" encoding="UTF-8" standalone="no"?>
<!-- Created with Inkscape (http://www.inkscape.org/) -->

<svg
   xmlns:dc="http://purl.org/dc/elements/1.1/"
   xmlns:cc="http://creativecommons.org/ns#"
   xmlns:rdf="http://www.w3.org/1999/02/22-rdf-syntax-ns#"
   xmlns:svg="http://www.w3.org/2000/svg"
   xmlns="http://www.w3.org/2000/svg"
   xmlns:sodipodi="http://sodipodi.sourceforge.net/DTD/sodipodi-0.dtd"
   xmlns:inkscape="http://www.inkscape.org/namespaces/inkscape"
   version="1.1"
   id="svg3843"
   width="250"
   height="72"
   viewBox="0 0 250 72"
   sodipodi:docname="logo.svg"
   inkscape:version="0.92.3 (2405546, 2018-03-11)">
  <metadata
     id="metadata3849">
    <rdf:RDF>
      <cc:Work
         rdf:about="">
        <dc:format>image/svg+xml</dc:format>
        <dc:type
           rdf:resource="http://purl.org/dc/dcmitype/StillImage" />
        <dc:title></dc:title>
      </cc:Work>
    </rdf:RDF>
  </metadata>
  <defs
     id="defs3847">
    <clipPath
       clipPathUnits="userSpaceOnUse"
       id="clipPath3890">
      <rect
         style="fill:none"
         id="rect3892"
         width="522.34821"
         height="500.87128"
         x="1495.9519"
         y="-135.93764"
         ry="4.2186675" />
    </clipPath>
  </defs>
  <sodipodi:namedview
     pagecolor="#ffffff"
     bordercolor="#666666"
     borderopacity="1"
     objecttolerance="10"
     gridtolerance="10"
     guidetolerance="10"
     inkscape:pageopacity="0"
     inkscape:pageshadow="2"
     inkscape:window-width="1912"
     inkscape:window-height="838"
     id="namedview3845"
     showgrid="false"
     inkscape:zoom="5.616"
     inkscape:cx="125"
     inkscape:cy="36.000001"
     inkscape:window-x="586"
     inkscape:window-y="204"
     inkscape:window-maximized="0"
     inkscape:current-layer="svg3843"
     fit-margin-top="0"
     fit-margin-left="0"
     fit-margin-right="0"
     fit-margin-bottom="0" />
  <g
     id="g3855"
     transform="matrix(0.48300752,0,0,0.14465733,-738.41867,19.209675)">
    <g
       id="g3886"
       clip-path="url(#clipPath3890)"
       transform="translate(30.372879,4.2711864e-6)"
       inkscape:export-xdpi="96"
       inkscape:export-ydpi="96">
      <path
         inkscape:connector-curvature="0"
         id="path3865"
         d="m 1890.4649,393.83206 c -2.5726,-2.5726 -3.2969,-2.713 -6.1425,-1.1901 -4.3527,2.3295 -7.909,-0.8827 -6.628,-5.9867 1.0531,-4.196 4.7496,-4.5342 8.176,-0.748 1.534,1.695 2.9105,2.2294 3.7025,1.4375 1.8743,-1.8744 4.9356,-0.216 4.9356,2.6736 0,1.3882 0.6,2.524 1.3334,2.524 0.7333,0 1.3333,-1.1358 1.3333,-2.524 0,-1.3882 0.75,-2.7678 1.6667,-3.0659 2.9177,-0.9485 9.6666,0.8597 9.6666,2.5899 0,0.9167 0.6,1.6421 1.3334,1.6121 0.7333,-0.03 1.2994,-1.1023 1.2579,-2.3828 -0.064,-1.9739 1.3366,-2.3708 9.2018,-2.6079 9.5402,-0.2876 12.9071,0.9917 12.8312,4.8752 -0.036,1.8444 -0.3299,1.7902 -1.9583,-0.3611 -1.6269,-2.1493 -2.2393,-2.2628 -4.0593,-0.7524 -1.795,1.4897 -2.3475,1.4677 -3.4003,-0.1355 -1.0671,-1.6249 -1.5273,-1.5616 -3.0454,0.4191 -0.9836,1.2833 -2.3987,2.3333 -3.1447,2.3333 -0.746,0 -2.1034,0.9 -3.0163,2 -2.2143,2.6682 -5.3194,2.5287 -7.4119,-0.333 -1.7504,-2.3937 -2.025,-2.3553 -11.485,1.6054 -1.442,0.6038 -3.261,-0.097 -5.1467,-1.9827 z m -6.8586,-5.7335 c 0.2552,-1.3157 -0.425,-2.2229 -1.6667,-2.2229 -1.2368,0 -2.0977,1.14 -2.0977,2.7778 0,3.2494 3.1157,2.7901 3.7644,-0.5549 z m -366.4311,3.1105 c -2.3287,-4.3512 0.6342,-8.4732 5.4046,-7.5191 2.1039,0.4208 4.184,0.1847 4.6224,-0.5246 1.0681,-1.7283 5.5965,-1.6442 6.6894,0.1241 0.9577,1.5496 -1.8013,9.2529 -3.3139,9.2529 -0.5174,0 -0.6678,-1.8588 -0.3344,-4.1306 0.5098,-3.4734 0.2103,-4.0543 -1.8823,-3.6514 -1.3687,0.2636 -2.71,1.6724 -2.9806,3.1306 -1.122,6.0445 -5.7454,7.9142 -8.2052,3.3181 z m 5.3333,-2.6667 c 0,-1.4815 -0.8889,-2.6667 -2,-2.6667 -1.1111,0 -2,1.1852 -2,2.6667 0,1.4815 0.8889,2.6667 2,2.6667 1.1111,0 2,-1.1852 2,-2.6667 z m 21.6667,4.3 c -5.6606,-0.916 -3.2058,-10.2212 2.4841,-9.4166 2.468,0.3489 3.2735,1.3847 3.5877,4.6131 0.4343,4.4632 -1.0276,5.6198 -6.0718,4.8035 z m 11.9355,-1.3 c 0.057,-1.2833 -0.3606,-4.0427 -0.9272,-6.132 -0.8819,-3.2513 -0.6761,-3.7304 1.4277,-3.3253 2.8952,0.5576 4.9447,8.21 2.7789,10.3757 -2.0893,2.0894 -3.3961,1.7234 -3.2794,-0.9184 z m 12.7312,0.8932 c -2.6949,-1.5696 -3.0541,-5.3057 -0.7334,-7.6265 2.1629,-2.1629 5.1493,-2.0334 4.2975,0.1864 -0.377,0.9825 0.2492,2.5621 1.3916,3.5102 1.5826,1.3134 1.7169,2.1579 0.5641,3.547 -1.7818,2.1469 -2.4158,2.1908 -5.5198,0.3829 z m 21.8932,0.2751 c -1.0073,-0.6386 -1.5833,-2.7899 -1.3333,-4.9796 0.5519,-4.8352 5.7138,-6.2442 7.0821,-1.9331 1.0598,3.3393 4.0944,3.5743 5.8415,0.4524 1.165,-2.0818 1.534,-1.99 4.0219,1 4.7163,5.6681 2.798,7.7628 -4.3674,4.7689 -4.0173,-1.6785 -4.8594,-1.6842 -6.222,-0.042 -1.8111,2.1823 -2.5643,2.2923 -5.0228,0.7338 z m 4.6762,-3.6362 c 0.8418,-2.1936 -1.9392,-4.8729 -3.8391,-3.6988 -0.585,0.3616 -1.0637,1.822 -1.0637,3.2454 0,3.1197 3.7467,3.4662 4.9028,0.4534 z m 59.2118,1.8012 c -2.1246,-5.6265 3.4277,-10.2577 7.4616,-6.2238 1.0348,1.0348 2.1913,0.9753 4.09,-0.2104 1.456,-0.9093 3.6267,-1.2774 4.8239,-0.818 2.7904,1.0707 2.927,8.3456 0.1766,9.4011 -1.2045,0.4622 -2,0.01 -2,-1.1438 0,-1.0512 -1.1387,-2.5206 -2.5304,-3.2654 -2.0504,-1.0974 -2.9413,-0.727 -4.6974,1.953 -2.6977,4.1173 -5.8359,4.249 -7.3243,0.3073 z m 5.2188,-2.3333 c 0,-1.4815 -0.8889,-2.6667 -2,-2.6667 -1.1111,0 -2,1.1852 -2,2.6667 0,1.4815 0.8889,2.6667 2,2.6667 1.1111,0 2,-1.1852 2,-2.6667 z m 21.6666,4.3379 c -1.782,-0.5989 -2.1805,-4.1139 -0.8573,-7.5622 1.0883,-2.836 6.735,-2.6846 8.3681,0.2243 1.2475,2.2222 1.3527,2.2222 2.2089,0 1.1208,-2.9091 6.7124,-3.0698 7.8044,-0.2243 1.4362,3.7428 0.8624,7.2243 -1.1907,7.2243 -1.1,0 -2.0092,-0.75 -2.0204,-1.6667 -0.015,-1.1935 -0.2985,-1.2375 -1,-0.155 -1.0297,1.5889 -10.4596,3.1186 -13.313,2.1596 z m 26.915,-0.7321 c -2.3301,-1.304 -2.4955,-5.1585 -0.315,-7.3391 2.1539,-2.1539 3.7334,-2.018 3.7334,0.3213 0,3.2587 2.4785,3.6622 4.9274,0.8021 1.2825,-1.4979 2.9521,-2.7234 3.7101,-2.7234 1.6899,0 5.3113,7.8289 4.1559,8.9843 -1.2319,1.2319 -13.9934,1.1963 -16.2118,-0.045 z m 26.095,-2.2485 c -1.7133,-4.1363 -1.0924,-8.024 1.2815,-8.024 0.7564,0 1.3752,1.45 1.3752,3.2223 0,1.7722 0.708,3.4582 1.5732,3.7466 1.7565,0.5855 0.5463,5.0311 -1.3696,5.0311 -0.6674,0 -1.9545,-1.7892 -2.8603,-3.976 z m 19.9573,1.9366 c -2.0541,-2.475 0.2095,-8.6272 3.1742,-8.6272 3.5008,0 5.404,3.7422 3.7498,7.3728 -1.7074,3.7475 -4.4435,4.2432 -6.924,1.2544 z m 5.8108,-2.5297 c 0.7987,-2.0813 -2.153,-5.2781 -3.5674,-3.8637 -0.4825,0.4825 -0.8773,1.9773 -0.8773,3.3217 0,2.8812 3.3885,3.2944 4.4447,0.542 z m 6.195,1.8521 c -1.9258,-3.5983 -0.4279,-7.9496 2.7365,-7.9496 3.5332,0 5.7932,4.5692 3.9571,8 -1.8362,3.431 -4.8426,3.4084 -6.6936,-0.05 z m 4.9002,-2.0071 c 1.006,-2.6217 -0.1845,-3.8255 -2.7933,-2.8244 -1.1718,0.4497 -1.7013,1.6507 -1.2482,2.8314 1.0108,2.634 3.0293,2.6305 4.0415,-0.01 z m 28.7934,3.8411 c -2.496,-1.0072 -2.0078,-5.522 0.6667,-6.1643 1.2833,-0.3082 5.6333,-0.3564 9.6666,-0.107 12.2302,0.7562 19.1488,0.4142 20.8923,-1.0329 2.5846,-2.145 4.0549,-0.3286 3.3917,4.1901 -0.5532,3.7697 -0.7959,3.9472 -2.8525,2.086 -1.9675,-1.7806 -2.4899,-1.7923 -4.1884,-0.094 -2.4308,2.4308 -11.9097,1.2347 -11.9097,-1.5029 0,-2.4105 -3.5118,-2.3544 -4.4425,0.071 -0.4282,1.116 -1.7968,1.6169 -3.3255,1.2172 -1.4287,-0.3736 -3.0009,-0.027 -3.4936,0.7701 -0.9524,1.5411 -1.7391,1.6422 -4.4051,0.5665 z m 47.2222,0 c -1.4985,-1.4986 -0.9868,-5.5226 0.7778,-6.1163 2.5618,-0.8619 6.3333,0.4645 6.3333,2.2274 0,3.3706 -4.9321,6.0679 -7.1111,3.8889 z m 12.4445,-0.898 c 0,-1.0342 -0.375,-3.7553 -0.8334,-6.047 -0.6386,-3.1934 -0.3635,-4.1666 1.1779,-4.1666 1.1061,0 2.3553,1.3163 2.7761,2.9251 0.7241,2.769 0.8981,2.8046 3.2605,0.6667 3.1349,-2.8371 6.1736,-2.9606 5.1173,-0.208 -0.4477,1.1667 0.066,2.3775 1.1907,2.8093 1.0877,0.4174 1.9775,1.5305 1.9775,2.4735 0,2.4693 -3.7638,3.5536 -6.7632,1.9484 -1.7799,-0.9526 -3.39,-0.9367 -5.2368,0.052 -2.0806,1.1135 -2.6666,1.0139 -2.6666,-0.4531 z m 75.4196,0.5928 c -0.4057,-0.6565 0.1589,-1.5377 1.2547,-1.9582 1.0958,-0.4205 1.9923,-1.7045 1.9923,-2.8533 0,-1.6494 0.5406,-1.7994 2.5701,-0.7133 1.4135,0.7565 3.5135,1.0134 4.6667,0.571 1.4719,-0.5649 2.0966,-0.017 2.0966,1.8381 0,1.8931 -1.1819,2.879 -4.1667,3.4759 -5.6511,1.1303 -7.5425,1.0493 -8.4137,-0.3602 z m -317.1894,-3.0206 c -3.9506,-4.3109 -2.0166,-6.0119 6.9313,-6.0962 8.81,-0.083 11.6488,1.6569 10.1921,6.2464 -1.0118,3.1878 -4.0609,3.6188 -5.1691,0.7306 -0.4221,-1.1 -1.6129,-2 -2.6461,-2 -1.0332,0 -2.6255,0.9 -3.5384,2 -2.0852,2.5125 -2.7536,2.4105 -5.7698,-0.8808 z m 174.5939,-0.312 c -1.0476,-4.1608 0.9197,-7.6269 3.069,-5.4072 0.7486,0.7732 0.579,2.8252 -0.4354,5.2667 l -1.6618,4 z m 46.8698,1.6517 c -0.9072,-2.3641 1.0422,-6.1672 2.443,-4.7663 0.5218,0.5217 0.3611,2.2652 -0.3569,3.8744 -1.0411,2.3332 -1.4637,2.5139 -2.0861,0.8919 z m 110.9727,-2.4592 c 0,-2.2 0.6,-4 1.3334,-4 0.7333,0 1.3333,1.8 1.3333,4 0,2.2 -0.6,4 -1.3333,4 -0.7334,0 -1.3334,-1.8 -1.3334,-4 z m 9.3334,2.0787 c 0,-1.0567 0.6,-2.2921 1.3333,-2.7454 0.7333,-0.4532 1.3333,0.4114 1.3333,1.9214 0,1.5099 -0.6,2.7453 -1.3333,2.7453 -0.7333,0 -1.3333,-0.8646 -1.3333,-1.9213 z m 10,0.588 c -0.899,-1.4545 0.242,-4 1.7929,-4 0.5329,0 0.969,1.2 0.969,2.6666 0,2.8475 -1.4065,3.5265 -2.7619,1.3334 z m 6,-1.3334 c 0,-2.4888 0.3555,-2.8444 1.6,-1.6 1.2444,1.2445 1.2444,1.9556 0,3.2 -1.2445,1.2445 -1.6,0.8889 -1.6,-1.6 z m 5.5307,0 c 0.429,-3.0438 1.0409,-3.3293 7.1359,-3.3293 6.1238,0 6.6968,0.2715 7.036,3.3333 0.3194,2.8841 0.1757,3.0189 -1.0663,1 -1.7593,-2.8596 -3.9697,-3.0452 -3.9697,-0.3333 0,2.6744 -2.1695,2.552 -3.2185,-0.1815 -0.7565,-1.9714 -1.1042,-1.9397 -3.6119,0.3297 -2.7438,2.4831 -2.7695,2.474 -2.3055,-0.8185 z m -402.4127,-2.4914 c -0.9138,-2.4543 -1.0466,-4.47 -0.3239,-4.9166 1.5919,-0.9839 2.8703,2.4159 2.3113,6.1472 -0.3877,2.5883 -0.6189,2.4451 -1.9874,-1.2306 z m 164.5889,-0.2299 c -0.5837,-3.9774 0.4159,-6.0407 2.1071,-4.3495 1.2965,1.2965 1.0179,8.4082 -0.3294,8.4082 -0.6501,0 -1.45,-1.8264 -1.7777,-4.0587 z m -87.8285,-27.8577 c -3.7587,-3.7588 -4.1314,-4.8154 -3.4611,-9.8126 0.9995,-7.4522 6.0282,-11.9389 12.7272,-11.3556 4.4098,0.384 4.8566,0.093 5.5071,-3.5821 0.5075,-2.8674 1.4593,-4 3.3615,-4 2.4638,0 2.6808,1.0404 3.0342,14.5527 0.2094,8.0039 -0.091,15.0028 -0.6667,15.5529 -0.576,0.5502 -4.4769,1.4181 -8.6686,1.9287 -7.3179,0.8914 -7.7889,0.7607 -11.8336,-3.284 z m 12.693,-3.5122 c 4.7948,-4.7948 -0.026,-14.3844 -5.7035,-11.3458 -3.8508,2.0609 -4.8058,6.3198 -2.2811,10.173 2.4727,3.7739 5.0108,4.1466 7.9846,1.1728 z m 49.9927,3.5311 c -10.2751,-10.275 2.694,-27.6102 14.4802,-19.3549 1.634,1.1445 3.8367,3.7552 4.895,5.8016 2.6402,5.1056 0.6099,6.7841 -8.206,6.7841 -3.8867,0 -7.0667,0.5265 -7.0667,1.1701 0,2.5595 4.0095,4.373 7.8185,3.5365 4.8363,-1.0623 7.02,1.5619 3.4637,4.1623 -4.303,3.1465 -11.0609,2.2242 -15.3847,-2.0997 z m 11.8517,-13.0872 c -0.5129,-2.6631 -3.5688,-3.5571 -6.2533,-1.8294 -2.6099,1.6797 -0.6183,4.1474 3.3473,4.1474 2.4666,0 3.2344,-0.6125 2.906,-2.318 z m 15.8972,14.326 c -5.1533,-4.0536 -6.566,-9.4895 -3.8692,-14.8884 1.2226,-2.4474 3.9239,-5.2577 6.0029,-6.2452 7.0112,-3.3299 17.5107,1.0349 13.0998,5.4457 -1.0731,1.0731 -2.3488,1.0757 -4.6887,0.01 -6.9289,-3.157 -11.9549,5.7875 -6.1857,11.0086 2.237,2.0244 3.2302,2.1639 6.0999,0.8563 3.7663,-1.716 5.8946,-1.0527 5.8946,1.8372 0,4.8359 -11.0244,6.1682 -16.3536,1.9762 z m 26.6174,0.2835 c -1.3249,-1.4641 -2.2638,-4.6849 -2.2638,-7.7665 0,-2.8957 -0.9262,-6.5873 -2.0582,-8.2035 -1.8976,-2.7092 -1.826,-3.2527 0.9174,-6.9634 3.4301,-4.6394 5.9398,-5.1422 7.1192,-1.4263 0.4536,1.4292 1.994,2.9696 3.4232,3.4232 3.3347,1.0584 3.3085,2.8378 -0.068,4.645 -3.8792,2.0761 -3.8301,11.9454 0.064,12.9639 3.7915,0.9915 2.7161,4.9422 -1.4789,5.4326 -2.0282,0.237 -4.3015,-0.6091 -5.6553,-2.105 z m 30.2905,-0.7167 c -3.2629,-2.8066 -3.8876,-4.3451 -3.8876,-9.5748 0,-8.0894 5.0034,-13.0687 12.4779,-12.4179 4.4097,0.384 4.8566,0.093 5.5071,-3.5821 0.5074,-2.8674 1.4592,-4 3.3614,-4 2.4639,0 2.6808,1.0404 3.0343,14.5527 0.2093,8.0039 -0.091,15.0028 -0.6667,15.5529 -0.576,0.5502 -4.3979,1.4082 -8.4931,1.9067 -6.721,0.8182 -7.8243,0.5809 -11.3333,-2.4375 z m 12.0172,-4.3367 c 4.7948,-4.7948 -0.026,-14.3844 -5.7036,-11.3458 -3.8508,2.0609 -4.8057,6.3198 -2.281,10.173 2.4727,3.7739 5.0107,4.1466 7.9846,1.1728 z m 29.4656,4.2535 c -3.1811,-3.1811 -3.4571,-4.2939 -3.098,-12.4919 0.3496,-7.9794 0.6966,-8.9997 3.0609,-8.9997 2.2196,0 2.7257,1.0061 3.0183,6 0.6263,10.6857 1.3246,12.2162 5.3616,11.7508 3.2773,-0.3779 3.6535,-0.9858 3.9718,-6.4175 0.5615,-9.5821 1.4361,-12 4.3404,-12 2.4372,0 2.6413,0.9274 2.6413,12 0,11.5513 -0.1123,12.0006 -3,12.0147 -1.65,0.01 -5.2059,0.3794 -7.9021,0.8253 -4.1168,0.6807 -5.4614,0.2511 -8.3942,-2.6817 z m 27.4671,1.9755 c -3.1715,-2.009 -0.879,-4.8004 3.9425,-4.8004 5.9134,0 6.9967,-2.2967 1.8867,-4 -6.2063,-2.0688 -7.3334,-3.1963 -7.3334,-7.3364 0,-4.5123 4.1488,-7.997 9.521,-7.997 8.618,0 11.1694,4.8887 2.9154,5.5862 -6.806,0.5752 -6.8559,2.7873 -0.1153,5.1174 4.8915,1.6909 5.7356,2.5463 6.0872,6.1684 0.306,3.1516 -0.353,4.7384 -2.63,6.3333 -3.2717,2.2916 -11.2981,2.8137 -14.2741,0.9285 z m 68.2368,-2.0183 c -3.0639,-2.6355 -3.741,-4.2994 -3.741,-9.1934 0,-7.1267 3.0606,-11.1666 9.3544,-12.3473 5.5789,-1.0466 12.327,2.3583 13.4368,6.7798 1.4503,5.7786 -0.088,7.3121 -7.3373,7.3121 -7.0741,0 -9.2676,1.3882 -6.2069,3.9283 1.1708,0.9718 3.6893,1.2252 6.652,0.6694 4.1797,-0.7842 4.7677,-0.5649 4.7677,1.7779 0,5.3271 -11.1577,6.0346 -16.9257,1.0732 z m 12.0252,-12.3261 c 1.1139,-1.1139 -1.6011,-4.4627 -3.5961,-4.4356 -2.676,0.036 -5.2034,2.3077 -4.2622,3.8305 0.9939,1.6082 6.4362,2.0273 7.8583,0.6051 z m -398.2631,12.1721 c -1.0719,-2.7933 -1.0933,-23.7406 -0.027,-26.5191 0.6304,-1.6427 2.8546,-2.109 10.0606,-2.109 8.0446,0 9.6781,0.4269 12.524,3.2727 2.2043,2.2043 3.2727,4.7678 3.2727,7.8523 0,6.701 -3.4617,10.1644 -11.2751,11.2806 -5.5871,0.7981 -6.729,1.4579 -7.388,4.2692 -0.9178,3.9149 -5.894,5.2711 -7.1672,1.9533 z m 17.0684,-13.39 c 1.1524,-1.1524 2.0952,-2.9095 2.0952,-3.9048 0,-3.1065 -4.1732,-6.1636 -7.8343,-5.739 -2.7306,0.3166 -3.5941,1.2356 -3.9318,4.185 -0.238,2.0786 -0.1068,4.6286 0.2915,5.6666 0.9706,2.5293 6.7708,2.4008 9.3794,-0.2078 z m 14.6952,13.7356 c -0.3989,-1.0395 -0.5471,-6.3325 -0.3293,-11.7624 l 0.396,-9.8724 6.2564,-0.1648 c 7.6879,-0.2024 9.1983,2.2751 3.7516,6.1535 -3.2967,2.3475 -3.9312,3.7881 -4.2731,9.7021 -0.3103,5.3657 -0.9332,7.0464 -2.739,7.3897 -1.2855,0.2444 -2.6637,-0.4062 -3.0626,-1.4457 z m 18.0667,-10.3071 c 0,-11.8741 0.077,-12.1745 3,-11.7594 2.8424,0.4037 3,1.0215 3,11.7594 0,10.738 -0.1576,11.3558 -3,11.7594 -2.9234,0.4152 -3,0.1148 -3,-11.7594 z m 10.6666,11.0717 c 0,-0.5106 1.5514,-3.1669 3.4474,-5.9029 l 3.4474,-4.9746 -3.3884,-4.9865 c -4.8718,-7.1694 -2.0957,-10.105 4.0744,-4.3086 l 3.0859,2.8991 3.0859,-2.8991 c 3.2651,-3.0673 7.5808,-3.8887 7.5808,-1.4427 0,0.801 -1.2,2.9819 -2.6667,4.8465 -3.3249,4.2269 -3.3249,6.7799 0,11.0305 1.4341,1.8333 2.6207,4.0833 2.637,5 0.047,2.6326 -4.1694,1.9444 -7.5511,-1.2324 l -3.0859,-2.8991 -3.0859,2.8991 c -2.9305,2.753 -7.5808,3.9619 -7.5808,1.9707 z m 69.8956,-0.8631 c -0.3781,-0.9853 -0.5093,-6.2353 -0.2915,-11.6667 0.3643,-9.0852 0.6359,-9.9093 3.3959,-10.3013 2.9219,-0.4149 3,-0.1113 3,11.6667 0,11.2661 -0.1851,12.0927 -2.7085,12.0927 -1.4897,0 -3.0178,-0.8061 -3.3959,-1.7914 z m 14.3844,-9.7755 0.3867,-11.7664 5.8041,-0.084 c 7.158,-0.104 8.6617,2.5122 3.7634,6.5475 -2.7725,2.284 -3.5607,4.2318 -3.8591,9.5369 -0.3263,5.7993 -0.7723,6.723 -3.4284,7.0997 -3.0086,0.4267 -3.0477,0.2605 -2.6667,-11.3333 z m 196.3201,9.874 c -0.3989,-1.0395 -0.5471,-6.3338 -0.3293,-11.7652 0.355,-8.8543 0.6716,-9.8752 3.0626,-9.8752 2.4572,0 2.6666,0.8889 2.6666,11.3151 0,9.7236 -0.3287,11.3784 -2.3373,11.7652 -1.2856,0.2476 -2.6637,-0.4004 -3.0626,-1.4399 z m 12.2092,-0.4161 c -1.135,-2.958 -0.9733,-18.261 0.2111,-19.9759 0.5388,-0.78 4.5013,-1.4856 8.8056,-1.568 6.6222,-0.1266 8.3239,0.3483 11.0635,3.0879 2.8493,2.8492 3.19,4.2368 2.8407,11.568 -0.3482,7.3092 -0.7237,8.3304 -3.0635,8.3304 -2.255,0 -2.7696,-1.1111 -3.3333,-7.1978 -0.6992,-7.5482 -3.1139,-10.6059 -7.1522,-9.0563 -1.5672,0.6014 -2.1812,2.5072 -2.1812,6.7699 0,7.5642 -1.0193,10.1508 -4,10.1508 -1.3097,0 -2.7455,-0.949 -3.1907,-2.109 z m -77.3034,-21.4736 c -1.0793,-7.8746 2.6546,-11.2631 6.2064,-5.6323 1.3645,2.1631 -2.0133,11.8816 -4.1297,11.8816 -0.671,0 -1.6055,-2.8122 -2.0767,-6.2493 z m -227.0222,-5.0801 c -0.4608,-1.2008 -0.2218,-2.7991 0.531,-3.5519 2.1735,-2.1735 6.3187,-0.7086 6.3187,2.2329 0,3.3916 -5.6378,4.4772 -6.8497,1.319 z m 81.3353,0 c -0.4619,-1.2035 -0.2004,-2.8275 0.581,-3.6089 2.0315,-2.0315 5.8806,-0.1748 5.3499,2.5806 -0.591,3.0692 -4.8635,3.8099 -5.9309,1.0283 z m 209.8074,0.274 c -1.0572,-2.755 1.0072,-5.2799 3.8668,-4.7292 3.5424,0.6822 3.2816,5.669 -0.3234,6.1834 -1.5567,0.2221 -3.1512,-0.4323 -3.5434,-1.4542 z m -10.7256,-24.2185 c -6.6515,-2.372 -6.9679,-2.7852 -5.4304,-7.0905 1.0746,-3.0091 1.985,-3.5715 5.2482,-3.2422 2.1715,0.2192 7.0051,0.7193 10.7415,1.1114 5.2322,0.5492 7.3004,0.2059 8.9999,-1.4936 4.9151,-4.9151 1.7726,-9.7917 -7.0743,-10.9783 -5.0015,-0.6708 -5.3818,-1.0189 -5.3315,-4.8801 0.034,-2.6215 1.5122,-5.8635 4,-8.7741 2.1702,-2.5393 3.9458,-5.0893 3.9458,-5.667 0,-0.5777 -3.5509,-1.0503 -7.8909,-1.0503 -9.8492,0 -12.1091,-0.8478 -12.1091,-4.5427 0,-5.3677 2.3326,-6.124 18.8865,-6.124 14.3218,0 15.8105,0.232 17.1135,2.6667 1.6693,3.1191 0.3117,6.3226 -5.5288,13.0464 -4.4919,5.171 -4.6994,6.4898 -1.1964,7.6016 1.4344,0.4553 4.199,2.7185 6.1434,5.0293 3.0294,3.6002 3.4472,5.1186 2.9197,10.6089 -0.6915,7.1962 -3.5498,11.1839 -9.9617,13.8978 -5.4344,2.3001 -16.8534,2.242 -23.4754,-0.1196 z m 51.1257,-1.0647 c -8.293,-4.237 -11.3698,-10.6763 -11.3263,-23.7047 0.064,-19.253 9.9604,-28.7907 28.7698,-27.7278 10.2625,0.5798 12.5242,2.19 10.2101,7.2688 -1.2879,2.8266 -2.0231,3.0231 -8.8755,2.3719 -8.7629,-0.8328 -15.4876,2.4029 -16.9289,8.1458 -1.1626,4.6323 -0.3935,5.0677 5.9398,3.3623 12.1185,-3.2632 24.1845,4.6947 24.1845,15.9503 0,13.75 -17.6386,21.6571 -31.9735,14.3334 z m 17.8979,-9.2967 c 2.8033,-4.0023 2.6138,-6.2919 -0.8235,-9.9507 -3.7717,-4.0149 -8.3922,-3.9159 -12.5776,0.2696 -5.5623,5.5622 -1.6476,12.6444 6.9893,12.6444 2.9694,0 4.9904,-0.934 6.4118,-2.9633 z m 32.0756,10.5008 c -8.4877,-3.9033 -12.6806,-12.4727 -12.6374,-25.8277 0.033,-10.1822 2.8375,-17.761 8.5046,-22.9823 5.3131,-4.8952 18.3228,-5.5071 24.7995,-1.1665 13.9633,9.3581 14.5718,38.346 1.0077,48.0045 -5.0372,3.5869 -15.9951,4.5839 -21.6744,1.972 z m 15.2994,-11.5032 c 3.5221,-3.5221 4.4621,-7.8791 3.7685,-17.4677 -0.8859,-12.2486 -8.0577,-17.601 -15.2706,-11.3968 -3.6189,3.1129 -3.7973,3.7974 -3.7973,14.5751 0,9.2497 0.4625,11.8198 2.54,14.1155 3.2107,3.5477 9.3026,3.6307 12.7594,0.1739 z m -500.49,9.857 c -1.5952,-4.157 -0.8977,-47.936 0.7906,-49.6243 1.6826,-1.6826 32.2323,-2.3481 36.291,-0.7907 2.7813,1.0673 2.7813,7.9808 0,9.0481 -1.16,0.4451 -7.1486,0.8093 -13.3079,0.8093 -10.9924,0 -11.2152,0.065 -12.0825,3.5206 -0.486,1.9363 -0.3349,5.0863 0.3359,7 1.1591,3.3071 1.746,3.499 11.8535,3.8747 5.8487,0.2175 11.1622,0.9235 11.8078,1.5691 0.6455,0.6455 0.7862,2.7176 0.3125,4.6046 -0.8392,3.3436 -1.1449,3.431 -12.0135,3.431 -12.6529,0 -12.7433,0.087 -12.7786,12.3333 l -0.018,6.3333 h -5.1906 c -3.5033,0 -5.4538,-0.6856 -6,-2.109 z m 48.524,-23.8656 c 0,-30.5833 -2.3535,-27.6677 21.8576,-27.0782 13.388,0.326 16.0863,0.7496 17.3265,2.7195 1.068,1.6966 1.0689,2.9701 0,4.6667 -1.1706,1.8636 -3.9872,2.4675 -13.9932,3 l -12.5275,0.6666 -0.4323,4.5269 c -0.2599,2.7225 0.2715,4.973 1.3333,5.6462 0.9711,0.6157 6.4536,1.1286 12.1834,1.1399 l 10.4178,0.02 -0.4178,4.3333 -0.4178,4.3333 -11.3333,0.6667 -11.3333,0.6667 v 5.3333 5.3333 l 13.3333,0.6667 13.3333,0.6667 0.4178,4.3333 0.4178,4.3333 h -20.0848 -20.0845 v -25.9746 z m 50.6666,0.1412 c 0,-24.8158 0.1202,-26.025 2.6667,-26.8332 4.8516,-1.5398 7.7946,0.686 18.1671,13.7399 5.6492,7.1097 10.7977,13.5217 11.441,14.2489 2.3404,2.6457 3.6846,-2.7834 3.7048,-14.9634 0.02,-12.201 0.051,-12.3157 3.5601,-13.1964 7.4272,-1.8641 7.7937,-0.5953 7.7937,26.983 v 25.188 l -4.9043,0.4081 c -4.7766,0.3975 -5.1933,0.043 -16,-13.5936 -6.1027,-7.7009 -11.8247,-14.0345 -12.7158,-14.0747 -1.147,-0.052 -1.7309,3.9166 -2,13.5935 l -0.3799,13.6667 -5.6667,0.41 -5.6667,0.41 z m 60,-0.1412 c 0,-30.5833 -2.3534,-27.6677 21.8576,-27.0782 13.3881,0.326 16.0864,0.7496 17.3266,2.7195 1.068,1.6966 1.0689,2.9701 0,4.6667 -1.1706,1.8636 -3.9872,2.4675 -13.9932,3 l -12.5276,0.6666 -0.4322,4.5269 c -0.26,2.7225 0.2715,4.973 1.3333,5.6462 0.9711,0.6157 6.4536,1.1286 12.1834,1.1399 l 10.4178,0.02 -0.4178,4.3333 -0.4178,4.3333 -11.3333,0.6667 -11.3334,0.6667 v 5.3333 5.3333 l 13.6667,0.38 13.6667,0.38 v 4.62 4.62 h -20 -20 v -25.9746 z m 61.972,24.308 c -0.3361,-0.9167 -0.7673,-10.3667 -0.9582,-21 l -0.3471,-19.3334 -7.3333,-0.6666 c -6.9132,-0.6285 -7.3586,-0.8876 -7.7735,-4.522 -0.2499,-2.1898 0.3261,-4.341 1.3334,-4.9796 0.9754,-0.6183 10.5034,-1.1334 21.1734,-1.1447 20.454,-0.022 22.6,0.5581 22.6,6.1036 0,3.4987 -2.2905,4.5427 -9.9664,4.5427 -4.0117,0 -5.9928,0.6371 -6.5576,2.109 -0.4451,1.16 -0.8093,10.76 -0.8093,21.3334 v 19.2242 h -5.3752 c -3.0854,0 -5.6355,-0.71 -5.9862,-1.6666 z m 35.3614,-24.2313 v -26.0513 l 3.5006,-0.8785 c 5.577,-1.3998 26.5383,0.4346 30.9326,2.707 11.6599,6.0296 14.1436,21.4369 4.8614,30.1571 -1.812,1.7023 -3.2946,3.6325 -3.2946,4.2892 0,0.6567 1.8,3.8102 4,7.0078 5.3659,7.7991 5.1544,8.9044 -1.6093,8.41 -4.8802,-0.3567 -6.2008,-1.1899 -10.1599,-6.41 -4.9495,-6.526 -8.5369,-8.5469 -13.1267,-7.395 -2.4548,0.6161 -3.0278,1.8199 -3.3647,7.0688 l -0.4061,6.3262 -5.6667,0.41 -5.6666,0.41 z m 29.4078,-0.5609 c 2.0536,-1.663 3.0366,-3.8883 3.0366,-6.8745 0,-6.3671 -4.2137,-9.3333 -13.2588,-9.3333 h -7.1856 v 8.4444 c 0,4.6445 0.4,8.8445 0.8889,9.3334 1.9597,1.9597 13.5163,0.8613 16.5189,-1.57 z m 26.1819,25.6041 c -1.7034,-1.7034 -1.0724,-49.1292 0.6769,-50.8786 1.8662,-1.8662 33.9843,-2.2453 36.8402,-0.4349 1.0072,0.6386 1.5832,2.7898 1.3333,4.9796 l -0.4401,3.8553 -13.3334,0.6667 -13.3333,0.6666 -0.4297,3.7473 c -0.7183,6.2648 1.5775,7.5861 13.1809,7.5861 11.0691,0 12.6619,0.8445 11.3619,6.024 -0.7629,3.0396 -1.4081,3.2258 -12.4438,3.5909 -12.579,0.4162 -13.604,1.1513 -11.7736,8.4441 0.7682,3.0608 1.3156,3.1957 14.4514,3.5612 l 13.6529,0.3798 v 4 4 l -19.4103,0.3675 c -10.6756,0.2021 -19.8256,-0.048 -20.3333,-0.5556 z m -145.52,-56.3657 c -0.4148,-0.6712 0.8031,-3.0712 2.7066,-5.3333 2.8606,-3.3997 4.4374,-4.1129 9.0927,-4.1129 4.4302,0 6.3966,0.798 9.2149,3.7396 6.2382,6.5113 3.4101,9.3387 -4.6052,4.604 -3.7388,-2.2086 -4.1322,-2.2086 -7.9804,0 -4.4939,2.5791 -7.29,2.9449 -8.4286,1.1026 z m -162.4031,-27.7325 c -2.2061,-0.5445 -2.3448,-10.1136 -2.5445,-175.47814 -0.1163,-96.19624 -0.1014,-176.07601 0.033,-177.51063 0.1343,-1.4346 0.9794,-3.07541 1.8779,-3.64624 2.5688,-1.63198 227.3248,-1.33781 230.388,0.30154 2.4202,1.2953 2.579,3.05276 2.579,28.55762 0,14.94755 -0.3642,28.12644 -0.8094,29.28642 -0.7257,1.89092 -9.1264,2.10905 -81.2243,2.10905 -44.2283,0 -81.3641,0.36419 -82.524,0.80932 -1.8631,0.71491 -2.1091,5.8388 -2.1091,43.92131 0,26.93562 0.494,43.41729 1.3165,43.92564 0.7241,0.4475 31.0145,0.76906 67.312,0.7146 36.2975,-0.0545 67.5051,0.27982 69.3502,0.74292 l 3.3546,0.84197 v 29.85545 29.85546 h -69.0666 c -51.9408,0 -69.4634,0.39673 -70.6667,1.6 -1.204,1.204 -1.6,19.00473 -1.6,71.92131 0,54.7929 -0.368,70.5595 -1.6667,71.4 -1.7115,1.1077 -59.808,1.827 -64,0.7924 z m 273.2295,0.071 c -0.8084,-0.8084 -1.3569,-60.0261 -0.5628,-60.7596 0.1833,-0.1693 37.5333,-0.6193 83,-1 l 82.6667,-0.6921 v -40.6666 -40.6667 l -70,-0.66667 -70,-0.66667 V 46.54239 13.20906 l 70,-0.66667 70,-0.66667 0.3526,-40.15406 c 0.2855,-32.51919 0.01,-40.4397 -1.4574,-41.65627 -1.2884,-1.06924 -25.215,-1.60125 -83.0193,-1.84592 l -81.2093,-0.34379 v -30 -30 h 117.3334 117.3333 v 178.6667 178.66668 l -116.7705,0.3406 c -64.2238,0.1873 -117.1738,-0.063 -117.6667,-0.5556 z"
         style="fill:#1c98bc;stroke-width:1.33333337" />
      <path
         inkscape:connector-curvature="0"
         id="path3861"
         d="m 1603.8928,390.54238 c -0.4532,-0.7334 0.1468,-1.3334 1.3333,-1.3334 1.1866,0 1.7866,0.6 1.3334,1.3334 -0.4533,0.7333 -1.0533,1.3333 -1.3334,1.3333 -0.2801,0 -0.8801,-0.6 -1.3333,-1.3333 z m 51.4301,-32.8465 c -3.8812,-4.9342 -3.6172,-11.7543 0.6191,-15.9906 2.759,-2.759 4.4182,-3.3009 9,-2.9394 5.4693,0.4315 5.6285,0.3289 6.0353,-3.8902 0.2588,-2.6841 1.1468,-4.3333 2.3333,-4.3333 1.5476,0 1.9155,2.7823 1.9155,14.4854 v 14.4854 l -6.1861,0.8479 c -9.6023,1.3162 -10.7627,1.0907 -13.7171,-2.6652 z m 13.2366,-1.8202 c 4.9261,-4.9262 2.5426,-13.3333 -3.7803,-13.3333 -4.8455,0 -6.8864,2.23 -6.8864,7.5244 0,2.9572 0.9369,4.9806 2.9633,6.4 3.8136,2.6711 4.4934,2.6189 7.7034,-0.5911 z m 50.0153,2.1365 c -6.8626,-6.8626 -2.2797,-19.4698 7.0776,-19.4698 5.0857,0 10.9071,4.6417 10.9071,8.6969 0,2.9181 -0.6008,3.2018 -7.5614,3.5699 -7.7158,0.408 -9.3509,1.5541 -7.1612,5.0196 0.8019,1.2692 3.1598,1.8763 6.7337,1.7338 7.4155,-0.2957 6.3997,2.8358 -1.0995,3.389 -4.471,0.3298 -6.1976,-0.2406 -8.8963,-2.9394 z m 12.4834,-10.6008 c 1.1383,-1.3716 0.8597,-2.3696 -1.1755,-4.2115 -2.2034,-1.994 -3.2463,-2.1502 -5.9953,-0.8977 -3.2029,1.4593 -4.2973,4.1597 -2.439,6.0179 1.5655,1.5656 8.0665,0.9508 9.6098,-0.9087 z m 14.3477,11.0342 c -7.5084,-5.9062 -2.597,-19.9032 6.9839,-19.9032 5.3049,0 8.1697,1.2244 8.1697,3.4917 0,1.4308 -1.229,1.6766 -5.2045,1.0409 -4.5548,-0.7284 -5.4777,-0.4151 -7.3941,2.5097 -4.35,6.6388 1.964,15.1751 8.5982,11.6245 3.3154,-1.7743 4.0004,-1.6846 4.0004,0.5239 0,4.2388 -10.0686,4.7123 -15.1536,0.7125 z m 27.153,0.7627 c -0.9133,-1.1004 -1.9652,-4.8504 -2.3377,-8.3333 -0.3724,-3.483 -1.2389,-7.0425 -1.9253,-7.9101 -1.1257,-1.4226 2.0764,-8.4225 3.8528,-8.4225 0.3388,0 2.3741,1.7582 4.523,3.9071 3.7,3.6999 3.7652,3.9521 1.2308,4.7565 -3.8524,1.2227 -3.8596,11.9082 -0.01,14.3125 1.4666,0.9159 2.6666,2.121 2.6666,2.6779 0,1.8337 -6.305,1.055 -8.0006,-0.9881 z m 29.94,-1.272 c -4.5025,-4.5025 -4.454,-11.6672 0.1098,-16.231 2.759,-2.759 4.4182,-3.3009 9,-2.9394 5.4693,0.4315 5.6285,0.3289 6.0353,-3.8902 0.2588,-2.6841 1.1468,-4.3333 2.3333,-4.3333 1.5476,0 1.9155,2.7823 1.9155,14.4854 v 14.4854 l -6.1861,0.8479 c -9.0955,1.2467 -9.6354,1.1476 -13.2078,-2.4248 z m 12.7272,-2.0606 c 4.9262,-4.9262 2.5426,-13.3333 -3.7802,-13.3333 -4.8455,0 -6.8864,2.23 -6.8864,7.5244 0,2.9572 0.9368,4.9806 2.9633,6.4 3.8135,2.6711 4.4933,2.6189 7.7033,-0.5911 z m 28.8554,2.5314 c -2.9746,-4.2468 -3.1229,-19.8647 -0.1887,-19.8647 1.5146,0 2,1.6393 2,6.7543 0,8.2962 1.786,11.9123 5.8837,11.9123 4.4641,0 5.8999,-2.4134 6.3698,-10.707 0.3065,-5.4101 0.9295,-7.293 2.4132,-7.293 1.546,0 2.0905,2.0885 2.3988,9.2012 0.2194,5.0606 -0.089,9.6887 -0.6846,10.2846 -0.5959,0.5959 -4.4405,1.478 -8.5435,1.9603 -6.82,0.8015 -7.6479,0.6086 -9.6487,-2.248 z m 28.0335,1.913 c -2.0698,-2.0698 -0.5392,-2.9337 4.7778,-2.6968 4.8274,0.215 5.6667,-0.1351 5.6667,-2.3642 0,-1.9272 -1.3249,-2.93 -5.0275,-3.8056 -11.8463,-2.8016 -7.6723,-14.4196 4.5585,-12.6883 3.7765,0.5345 2.9426,3.1705 -0.8644,2.7324 -6.9779,-0.8031 -7.8399,5.4101 -0.9419,6.7897 4.0011,0.8002 8.2753,4.0802 8.2753,6.3503 0,3.0786 -5.5514,6.5714 -10.4445,6.5714 -2.8111,0 -5.5111,-0.4 -6,-0.8889 z m 67.7931,-2.3079 c -9.3676,-9.3676 2.1967,-24.4452 13.9321,-18.1646 2.5501,1.3647 5.7372,8.5657 4.3882,9.9148 -0.429,0.429 -3.9446,0.78 -7.8124,0.78 -8.1742,0 -10.2805,2.0191 -5.8496,5.6071 2.2277,1.8038 4.2045,2.2655 7.0369,1.6434 2.9795,-0.6544 3.7939,-0.4249 3.3439,0.9422 -0.3414,1.037 -2.9594,1.9817 -6.1427,2.2165 -4.471,0.3298 -6.1976,-0.2406 -8.8964,-2.9394 z m 12.3632,-9.9302 c 2.2304,-1.4152 0.7338,-5.2185 -2.4513,-6.2294 -4.9629,-1.5752 -10.9261,4.5908 -6.2605,6.4734 2.6286,1.0607 6.8416,0.9427 8.7118,-0.244 z m -398.0918,-1.873 0.38,-13.6666 8.7831,-0.3893 c 11.1571,-0.4946 14.8169,1.9069 14.8169,9.7226 0,6.4915 -3.7942,10 -10.8144,10 -5.3839,0 -8.119,1.8865 -8.119,5.6 0,1.5249 -0.9894,2.4 -2.7133,2.4 -2.5771,0 -2.6942,-0.6861 -2.3333,-13.6667 z m 14.8457,1.7431 c 6.7909,-2.5819 5.5561,-11.1276 -1.8426,-12.7526 -5.4457,-1.1961 -7.9565,1.1375 -7.9565,7.395 0,6.3255 2.9751,7.9521 9.7991,5.3576 z m 16.8676,1.3834 v -10.5403 l 5.347,0.2749 c 6.2718,0.3223 6.6919,1.3424 2.0551,4.9898 -2.8249,2.222 -3.4021,3.7907 -3.4021,9.2459 0,4.951 -0.4928,6.5699 -2,6.5699 -1.6091,0 -2,-2.06 -2,-10.5402 z m 17.9689,6.1769 c -1.4496,-7.7273 -0.2478,-16.2275 2.3644,-16.723 2.0661,-0.3919 2.3334,0.7903 2.3334,10.3219 0,8.5304 -0.4026,10.7644 -1.9396,10.7644 -1.1354,0 -2.279,-1.8092 -2.7582,-4.3633 z m 12.658,1.7709 c 0.7631,-1.4258 1.9842,-2.9612 2.7136,-3.412 2.153,-1.3307 1.5253,-6.0253 -1.4492,-10.8382 -3.2428,-5.2469 -1.1586,-6.1461 3.6894,-1.5916 l 3.086,2.899 3.0859,-2.899 c 3.0443,-2.86 6.2755,-3.8469 6.2177,-1.8991 -0.016,0.55 -1.2029,2.5 -2.637,4.3333 -1.434,1.8333 -2.6073,4.2333 -2.6073,5.3333 0,1.1 1.1733,3.5 2.6073,5.3334 1.4341,1.8333 2.6207,3.7833 2.637,4.3333 0.058,1.9478 -3.1734,0.9608 -6.2177,-1.8991 l -3.0859,-2.8991 -3.086,2.8991 c -3.9866,3.7453 -6.8902,3.925 -4.9538,0.3067 z m 68.0398,-8.0743 c 0,-9.6272 0.2652,-10.8111 2.3333,-10.4128 1.974,0.3801 2.3333,1.9839 2.3333,10.4128 0,8.429 -0.3593,10.0327 -2.3333,10.4129 -2.0681,0.3982 -2.3333,-0.7856 -2.3333,-10.4129 z m 14.1666,6.5 c -1.1174,-5.5871 -1.0209,-13.4882 0.1871,-15.3133 1.0868,-1.642 11.8018,-1.6838 11.3817,-0.044 -0.1456,0.5678 -1.7956,2.2367 -3.6667,3.7085 -2.8248,2.222 -3.4021,3.7908 -3.4021,9.2459 0,7.615 -3.1239,9.2834 -4.5,2.4033 z m 196.5,-6.5 c 0,-8.5925 0.3889,-10.6666 2,-10.6666 1.6111,0 2,2.0741 2,10.6666 0,8.5926 -0.3889,10.6667 -2,10.6667 -1.6111,0 -2,-2.0741 -2,-10.6667 z m 12.2753,0.4798 0.3914,-10.4048 8.2767,-0.3437 c 7.2332,-0.3004 8.536,0.026 10.3333,2.5925 2.8315,4.0424 2.8756,18.3429 0.057,18.3429 -1.419,0 -2.0053,-1.4525 -2.0182,-5 -0.028,-7.7449 -1.3374,-10.9548 -4.8251,-11.8301 -4.7783,-1.1993 -6.9762,1.542 -7.4241,9.2595 -0.3115,5.3667 -0.925,6.9789 -2.7907,7.3337 -2.1602,0.4108 -2.3535,-0.5508 -2,-9.95 z m -76.9822,-12.8921 c -1.0495,-5.5941 -0.4195,-6.9719 2.6494,-5.7942 2.5688,0.9857 2.6524,4.8834 0.1773,8.2682 -1.7637,2.412 -1.9388,2.2588 -2.8267,-2.474 z m -227.2931,-5.5877 c 0,-1.1111 1.1852,-2 2.6667,-2 1.4815,0 2.6667,0.8889 2.6667,2 0,1.1111 -1.1852,2 -2.6667,2 -1.4815,0 -2.6667,-0.8889 -2.6667,-2 z m 81.3334,0 c 0,-1.3733 0.8738,-2.0272 2.3333,-1.7461 2.8105,0.5412 2.6332,2.9075 -0.2629,3.5106 -1.208,0.2515 -2.0704,-0.4835 -2.0704,-1.7645 z m 210.2584,1.1474 c -1.2443,-1.2443 0.2594,-3.1474 2.4869,-3.1474 1.0568,0 1.9213,0.9 1.9213,2 0,2.0083 -2.8146,2.7409 -4.4082,1.1474 z m -393.9561,-24.2656 c -1.2965,-0.8229 -1.6116,-6.8826 -1.3333,-25.6463 l 0.3643,-24.5688 h 18 18 v 3.3333 c 0,3.2749 -0.2222,3.3451 -12.6667,4 l -12.6666,0.6667 v 7.3333 7.3334 l 11.3333,0.6666 c 11.0222,0.6484 11.3333,0.7582 11.3333,4 0,3.2419 -0.3111,3.3517 -11.3333,4 l -11.3333,0.6667 -0.4085,7.9539 c -0.5326,10.3724 -3.6639,13.8313 -9.2892,10.2612 z m 47.9643,-0.4818 c -1.8511,-1.8511 -2.2813,-45.9286 -0.476,-48.7736 0.8124,-1.2802 5.5572,-1.6136 18.9796,-1.3333 l 17.8964,0.3736 v 3.3333 c 0,3.3013 -0.1248,3.337 -12.9866,3.7148 -12.3945,0.3641 -13.0228,0.5251 -13.7772,3.5311 -0.4348,1.7322 -0.5908,4.5606 -0.3467,6.2852 0.4174,2.9486 1.1197,3.1753 11.7772,3.8023 11.1843,0.6579 11.3389,0.7149 11.7552,4.3333 l 0.4219,3.6667 h -10.4885 c -11.6881,0 -13.6886,1.0717 -13.6886,7.3333 0,6.4486 1.882,7.3333 15.6,7.3333 12.1899,0 12.4,0.054 12.4,3.1907 0,1.7549 -0.9491,3.5549 -2.1091,4 -4.0447,1.5521 -33.2759,0.891 -34.9576,-0.7907 z m 52.0357,0.5098 c -1.2957,-0.8437 -1.6114,-6.9217 -1.3333,-25.6743 l 0.3643,-24.5688 3.5407,-0.4097 c 3.0877,-0.3574 5.0382,1.4766 15.2447,14.3333 6.4372,8.1087 12.4939,14.7431 13.4593,14.7431 1.3301,0 1.7602,-3.1491 1.7757,-13 0.011,-7.15 0.5263,-13.7981 1.1447,-14.7735 0.6386,-1.0073 2.7898,-1.5833 4.9796,-1.3333 l 3.8553,0.4401 0.3622,24.8463 c 0.3105,21.2983 0.071,24.9581 -1.6783,25.6292 -4.1456,1.5909 -8.4146,-1.8749 -19.3072,-15.6744 -6.1364,-7.7739 -11.645,-14.1344 -12.2415,-14.1344 -1.6741,0 -2.4389,4.913 -2.8021,18 -0.3017,10.8682 -0.5846,12.0321 -2.9998,12.3409 -1.4666,0.1876 -3.4306,-0.1565 -4.3643,-0.7645 z m 58.9572,-0.6213 c -0.3612,-0.9413 -0.4924,-12.4913 -0.2915,-25.6666 l 0.3653,-23.9552 h 18 18 v 3.3333 c 0,3.2783 -0.1973,3.3398 -11.9306,3.7225 -12.76,0.4161 -15.4027,1.5025 -15.4027,6.3318 0,6.6968 0.9582,7.2791 11.9794,7.2791 10.8002,0 14.5124,1.7246 12.8782,5.983 -0.5997,1.5628 -3.1251,2.017 -11.2158,2.017 -11.2045,0 -13.6418,1.1353 -13.6418,6.3543 0,7.3876 1.7156,8.3123 15.4221,8.3123 10.5195,0 12.8039,0.371 13.503,2.1928 1.6994,4.4285 -3.1809,5.8072 -20.5551,5.8072 -12.1628,0 -16.625,-0.4463 -17.1105,-1.7115 z m 62.4071,0.8285 c -1.2256,-0.4946 -1.672,-5.847 -1.687,-20.2281 -0.011,-10.7555 -0.4744,-20.2694 -1.0292,-21.142 -0.5547,-0.8725 -4.2955,-1.7725 -8.3129,-2 -6.792,-0.3845 -7.3042,-0.6473 -7.3042,-3.7469 v -3.3333 h 21.3333 21.3334 v 3.3333 c 0,3.0707 -0.5778,3.3859 -7.3334,4 l -7.3333,0.6667 -0.3549,20 c -0.2995,16.8834 -0.7028,20.2597 -2.5881,21.6667 -2.3252,1.7352 -3.9081,1.9197 -6.7237,0.7836 z m 34.4652,-0.9581 c -1.0545,-1.2706 -1.415,-9.2244 -1.1632,-25.6667 l 0.3647,-23.8255 9.3333,-0.4234 c 15.8896,-0.7209 22.959,0.7111 28.4773,5.7682 4.5555,4.1748 4.8561,4.9472 4.8561,12.4787 0,7.2517 -0.4193,8.4609 -4.3334,12.4993 -2.3833,2.4589 -4.3333,4.9342 -4.3333,5.5004 0,0.5663 1.8755,3.7557 4.1679,7.0875 2.9568,4.2976 3.7066,6.3428 2.5804,7.0388 -3.5014,2.164 -8.429,-0.4268 -13.0528,-6.8628 -4.5904,-6.3896 -4.8599,-6.5422 -10.868,-6.1527 l -6.1608,0.3993 -0.4252,5.9781 c -0.2339,3.288 -1.1339,6.4288 -2,6.9796 -2.4685,1.5698 -5.7714,1.2154 -7.443,-0.7988 z m 29.1808,-24.1402 c 1.7896,-1.6195 2.6874,-4.1124 2.6874,-7.4619 0,-7.4328 -4.7793,-10.8015 -14.5881,-10.2824 l -7.4119,0.3923 -0.4,8.4498 c -0.5252,11.0943 0.8041,12.6794 9.9936,11.9174 4.2518,-0.3526 8.0941,-1.5446 9.719,-3.0152 z m 26.9897,24.8631 c -1.2965,-0.8229 -1.6116,-6.8826 -1.3333,-25.6463 l 0.3643,-24.5688 h 18 18 l 0.4171,3.6174 0.4172,3.6173 -13.0838,0.3827 -13.0838,0.3826 -0.4064,6.3333 -0.4064,6.3334 10.4064,0.02 c 11.4284,0.022 14.2452,1.0234 13.5244,4.806 -0.4099,2.1511 -2.0713,2.6015 -11.7073,3.1735 -10.9866,0.6523 -11.2513,0.7485 -12.235,4.4462 -1.0725,4.0316 -0.2728,7.6025 2.0603,9.2001 0.7869,0.5388 6.9806,0.9888 13.764,1 12.1139,0.02 12.3333,0.077 12.3333,3.2111 0,1.7549 -0.9491,3.5549 -2.109,4 -3.137,1.2038 -32.9541,0.94 -34.922,-0.3089 z m 69.3643,-0.8696 c -4.4179,-1.9202 -5.2385,-3.8505 -3.0843,-7.2546 0.9993,-1.5793 2.1168,-1.6369 6.4676,-0.3333 7.9745,2.3892 14.5434,1.9824 17.6168,-1.0909 5.1832,-5.1833 1.6185,-12 -6.2751,-12 -8.0551,0 -8.4717,-4.6035 -1.2388,-13.6908 2.4685,-3.1014 3.5234,-5.4982 2.7564,-6.263 -0.6834,-0.6813 -5.1426,-1.4204 -9.9092,-1.6425 -8.2479,-0.3842 -8.6667,-0.5648 -8.6667,-3.7371 v -3.3333 h 16.6667 c 15.9836,0 16.6832,0.1163 17.0713,2.8365 0.2559,1.7938 -1.5821,5.132 -5,9.0811 -2.9726,3.4345 -5.4046,6.7927 -5.4046,7.4626 0,0.6699 1.7635,2.13 3.919,3.2446 5.5178,2.8534 8.081,7.0958 8.081,13.3752 0,6.5842 -2.8859,11.0039 -8.7981,13.4742 -5.6859,2.3757 -18.598,2.307 -24.202,-0.1287 z m 51.6667,-0.6137 c -6.314,-3.3606 -9.5327,-9.3908 -10.3329,-19.3587 -1.5186,-18.9186 8.2903,-30.4797 25.8951,-30.5206 9.5293,-0.022 13.1626,1.9686 10.9926,6.0233 -1.1691,2.1844 -2.2896,2.4608 -7.0702,1.7439 -7.4489,-1.1171 -14.6292,1.8585 -17.396,7.2091 -3.4555,6.6821 -2.8452,8.6961 2.2448,7.4072 2.3833,-0.6035 7.2347,-1.1227 10.7808,-1.1538 5.7724,-0.051 6.9243,0.4637 11,4.9111 5.243,5.721 6.0299,12.0942 2.2777,18.4461 -4.5543,7.7099 -18.8446,10.3737 -28.3919,5.2924 z m 16.1515,-5.4795 c 6.2607,-3.3506 5.5956,-12.7541 -1.1184,-15.8132 -6.1435,-2.7991 -13.6997,1.6689 -13.6997,8.1009 0,7.2255 7.9734,11.3754 14.8181,7.7123 z m 32.2356,5.4617 c -16.3999,-9.9996 -12.9157,-44.5709 4.9776,-49.3891 6.163,-1.6595 14.9335,-0.01 18.8726,3.5548 11.8663,10.7314 10.7441,37.764 -1.8919,45.5735 -6.0579,3.744 -16.051,3.8627 -21.9583,0.2608 z m 17.5852,-8.565 c 3.737,-3.7371 5.2939,-10.5738 4.3383,-19.0513 -0.9217,-8.1777 -4.6604,-12.9895 -10.4847,-13.4941 -6.4613,-0.5598 -10.6703,4.1726 -11.5132,12.9446 -1.2765,13.2849 3.3185,22.7851 11.0207,22.7851 1.9,0 4.8875,-1.4329 6.6389,-3.1843 z m -331.77,-49.6039 c 2.678,-4.0873 7.6996,-6.2841 11.6405,-5.0925 3.1478,0.9518 8.8239,5.7419 8.8239,7.4465 0,1.8743 -4.9152,1.2114 -6.6667,-0.8991 -2.1039,-2.535 -5.4283,-2.5512 -8.7452,-0.042 -1.4235,1.0767 -3.652,1.9767 -4.9522,2 -2.2376,0.04 -2.2429,-0.1425 -0.1003,-3.4125 z m 108.7722,-54.2118 0.3588,-29.6666 81.2093,-0.3438 c 57.282,-0.2424 81.7369,-0.7816 83,-1.8299 2.4615,-2.0429 2.6418,-79.77527 0.1908,-82.22633 -1.2033,-1.20327 -18.726,-1.6 -70.6667,-1.6 h -69.0667 V 45.87568 13.20901 h 69.8574 c 62.4707,0 69.9429,-0.223 70.6666,-2.10905 1.2053,-3.1408304 0.9395,-79.62172 -0.2834,-81.54727 -0.8154,-1.28396 -19.47,-1.73358 -82.9796,-2 l -81.9277,-0.34368 -0.3588,-29.66666 -0.3588,-29.66667 h 116.6921 116.6922 v 178 178 h -116.6922 -116.6921 z"
         style="fill:#224a56;stroke-width:1.33333337" />
    </g>
  </g>
</svg>
